<?xml version="1.0" standalone="no"?>
<svg viewBox="0 0 200 200" xmlns="http://www.w3.org/2000/svg">
  <path fill="#FF0066" d="M35.5,-54C46.5,-48.2,56.1,-39.1,65,-27.4C73.8,-15.7,81.9,-1.4,79.2,10.8C76.5,23,63.2,33.1,52,44C40.9,54.9,31.9,66.6,20.4,70.2C8.9,73.9,-5.1,69.5,-19.8,65.9C-34.5,62.3,-49.9,59.4,-62.6,50.9C-75.4,42.3,-85.5,28,-89.5,11.8C-93.6,-4.5,-91.6,-22.7,-83.6,-37.3C-75.6,-51.9,-61.6,-63,-46.7,-67C-31.7,-71.1,-15.9,-68.1,-1.8,-65.3C12.3,-62.5,24.5,-59.8,35.5,-54Z" transform="translate(100 100)" />
</svg>
